{"title":"Geordie Shore S11E09 1080P AAC2 0 H 264","uid":13012171,"size":1615219097,"categoryP":"video","categoryS":"hd___tv_shows","magnet":"?xt=urn:btih:8c56d6605d5b0a055a2c4d0aa60b35ead241cddb&amp;dn=Geordie+Shore+S11E09+1080P+AAC2+0+H+264&amp;tr=udp%3A%2F%2Ftracker.leechers-paradise.org%3A6969&amp;tr=udp%3A%2F%2Fzer0day.ch%3A1337&amp;tr=udp%3A%2F%2Fopen.demonii.com%3A1337&amp;tr=udp%3A%2F%2Ftracker.coppersurfer.tk%3A6969&amp;tr=udp%3A%2F%2Fexodus.desync.com%3A6969","seeders":6,"leechers":2,"uploader":"jmanwf","files":1,"time":1450263628,"description":"Zante. Chloe and Holly kick off before Chloe confronts Scott and lets slip how she truly feels. Meanwhile, Marnie gets an unexpected call while Nathan has some big news for the family.\r\n\r\n\r\nVideo\r\nID                                       : 2\r\nFormat                                   : AVC\r\nFormat/Info                              : Advanced Video Codec\r\nFormat profile                           :   \r\nFormat settings, CABAC                   : Yes\r\nFormat settings, ReFrames                : 4 frames\r\nCodec ID                                 : avc1\r\nCodec ID/Info                            : Advanced Video Coding\r\nDuration                                 : 42mn 2s\r\nBit rate                                 : 4 994 Kbps\r\nWidth                                    : 1 920 pixels\r\nHeight                                   : 1 080 pixels\r\nDisplay aspect ratio                     : 16:9\r\nFrame rate mode                          : Constant\r\nFrame rate                               : 25.000 fps\r\nColor space                              : YUV\r\nChroma subsampling                       : 4:2:0\r\nBit depth                                : 8 bits\r\nScan type                                : Progressive\r\nBits/(Pixel*Frame)                       : 0.096\r\nStream size                              : 1.47 GiB (97%)\r\nLanguage                                 : English\r\nEncoded date                             : UTC 2015-12-16 05:03:55\r\nTagged date                              : UTC 2015-12-16 05:08:05\r\nColor range                              : Limited\r\nColor primaries                          : BT.709\r\nTransfer characteristics                 : BT.709\r\nMatrix coefficients                      : BT.709\r\n\r\nAudio\r\nID                                       : 1\r\nFormat                                   : AAC\r\nFormat/Info                              : Advanced Audio Codec\r\nFormat profile                           : LC\r\nCodec ID                                 : 40\r\nDuration                                 : 42mn 2s\r\nBit rate mode                            : Variable\r\nBit rate                                 : 126 Kbps\r\nMaximum bit rate                         : 206 Kbps\r\nChannel(s)                               : 2 channels\r\nChannel positions                        : Front: L R\r\nSampling rate                            : 48.0 KHz\r\nCompression mode                         : Lossy\r\nStream size                              : 37.8 MiB (2%)\r\nLanguage                                 : English\r\nEncoded date                             : UTC 2015-12-16 05:03:55\r\nTagged date                              : UTC 2015-12-16 05:08:05\r\n\r\nText\r\nID                                       : 3-CC1\r\nFormat                                   : EIA-608\r\nMuxing mode                              : Final Cut\r\nCodec ID                                 : c608\r\nDuration                                 : 41mn 34s\r\nBit rate mode                            : Constant\r\nStream size                              : 0.00 Byte (0%)\r\nLanguage                                 : English\r\nEncoded date                             : UTC 2015-12-16 05:03:55\r\nTagged date                              : UTC 2015-12-16 05:04:13","torrent":{"xt":"urn:btih:8c56d6605d5b0a055a2c4d0aa60b35ead241cddb","amp;dn":"Geordie+Shore+S11E09+1080P+AAC2+0+H+264","amp;tr":["udp%3A%2F%2Ftracker.leechers-paradise.org%3A6969","udp%3A%2F%2Fzer0day.ch%3A1337","udp%3A%2F%2Fopen.demonii.com%3A1337","udp%3A%2F%2Ftracker.coppersurfer.tk%3A6969","udp%3A%2F%2Fexodus.desync.com%3A6969"],"infoHash":"8c56d6605d5b0a055a2c4d0aa60b35ead241cddb","infoHashBuffer":{"type":"Buffer","data":[140,86,214,96,93,91,10,5,90,44,77,10,166,11,53,234,210,65,205,219]},"announce":[],"urlList":[]}}